# xmcd CD database file
# Generated: Wed May 2 20:43:10 2001 by KSCD
# 
# Track frame offsets:
#       150
#       19738
#       37207
#       50013
#       81095
#       96194
#       112859
#       125461
#       141747
#       155706
#
# Disc length: 2325 seconds
#
# Revision: 3
# Processed by: cddbd v1.4b41PL1 Copyright (c) Steve Scherf et al.
# Submitted via: Kscd 1.2.7
#
DISCID=8c09130a
DTITLE=David John and the Comstock Cowboys - Songs Of The Old West
DYEAR=1900
DGENRE=
TTITLE0=The Trail Of The Bandit
TTITLE1=Shenandoah
TTITLE2=Calico
TTITLE3=Comanche (Of The 7th Cavalry)
TTITLE4=Cowboy Bill
TTITLE5=The Suns Going Down On The Old Chisholm Trail
TTITLE6=I Got Spurs
TTITLE7=Take Me Back To My Boots And Saddle
TTITLE8=Riders In The Sky
TTITLE9=Goodbye Sierra Madre (The Trail of the Bandit, Part 2)
EXTD=
EXTT0=
EXTT1=
EXTT2=
EXTT3=
EXTT4=
EXTT5=
EXTT6=
EXTT7=
EXTT8=
EXTT9=
PLAYORDER=
